<svg xmlns="http://www.w3.org/2000/svg" width="1600" height="1200" viewBox="0 0 1600 1200">
  <defs>
    <linearGradient id="bg" x1="0" y1="0" x2="1" y2="1">
      <stop offset="0" stop-color="#FFF9F4"/>
      <stop offset="1" stop-color="#FFE8D6"/>
    </linearGradient>
    <linearGradient id="steam" x1="0" y1="0" x2="0" y2="1">
      <stop offset="0" stop-color="#FF6A3D" stop-opacity="0.20"/>
      <stop offset="1" stop-color="#FF6A3D" stop-opacity="0"/>
    </linearGradient>
  </defs>
  <rect width="1600" height="1200" fill="url(#bg)"/>
  <circle cx="320" cy="280" r="320" fill="#FF6A3D" opacity="0.08"/>
  <circle cx="1320" cy="980" r="380" fill="#FFD666" opacity="0.12"/>

  <rect x="200" y="210" width="1200" height="780" rx="56" fill="#FFFFFF" opacity="0.95" stroke="#1F1A16" stroke-opacity="0.08"/>

  <g opacity="0.92">
    <path d="M740 380c-40-70 40-90 0-160M860 380c-40-70 40-90 0-160M980 380c-40-70 40-90 0-160" stroke="url(#steam)" stroke-width="22" stroke-linecap="round"/>
    <rect x="560" y="520" width="520" height="320" rx="64" fill="#FFF2E8" stroke="#1F1A16" stroke-opacity="0.12" stroke-width="10"/>
    <rect x="620" y="580" width="400" height="200" rx="56" fill="#B3563A" opacity="0.82"/>
    <path d="M1080 600c90 0 90 160 0 160" fill="none" stroke="#1F1A16" stroke-opacity="0.14" stroke-width="16" stroke-linecap="round"/>
  </g>

  <text x="300" y="900" font-family="ui-serif, Georgia, serif" font-size="72" fill="#1F1A16" font-weight="700">
    Masala Chai
  </text>
  <text x="300" y="970" font-family="ui-sans-serif, system-ui, -apple-system, Segoe UI, Roboto, Helvetica, Arial" font-size="34" fill="#1F1A16" opacity="0.70">
    Kadak blend " Elaichi, ginger, cloves
  </text>
</svg>

