<svg xmlns="http://www.w3.org/2000/svg" width="1600" height="1200" viewBox="0 0 1600 1200">
  <defs>
    <linearGradient id="bg" x1="0" y1="0" x2="1" y2="1">
      <stop offset="0" stop-color="#FFF9F4"/>
      <stop offset="1" stop-color="#FFE8D6"/>
    </linearGradient>
  </defs>
  <rect width="1600" height="1200" fill="url(#bg)"/>
  <circle cx="1260" cy="320" r="320" fill="#FFD666" opacity="0.16"/>
  <circle cx="380" cy="960" r="420" fill="#FF6A3D" opacity="0.08"/>

  <rect x="200" y="210" width="1200" height="780" rx="56" fill="#FFFFFF" opacity="0.95" stroke="#1F1A16" stroke-opacity="0.08"/>
  <g opacity="0.90" fill="none" stroke="#1F1A16" stroke-opacity="0.14" stroke-width="14">
    <path d="M520 560c80-120 220-120 300 0s220 120 300 0" />
    <path d="M520 640c80-120 220-120 300 0s220 120 300 0" />
    <path d="M520 720c80-120 220-120 300 0s220 120 300 0" />
  </g>
  <g opacity="0.55" fill="#FF6A3D">
    <circle cx="610" cy="560" r="10"/>
    <circle cx="850" cy="640" r="10"/>
    <circle cx="1090" cy="720" r="10"/>
  </g>

  <text x="300" y="900" font-family="ui-serif, Georgia, serif" font-size="72" fill="#1F1A16" font-weight="700">
    Butter Murukku
  </text>
  <text x="300" y="970" font-family="ui-sans-serif, system-ui, -apple-system, Segoe UI, Roboto, Helvetica, Arial" font-size="34" fill="#1F1A16" opacity="0.70">
    Tea-time snack " Light & crisp
  </text>
</svg>

