<svg xmlns="http://www.w3.org/2000/svg" width="1200" height="900" viewBox="0 0 1200 900">
  <defs>
    <linearGradient id="bg" x1="0" y1="0" x2="1" y2="1">
      <stop offset="0" stop-color="#070606"/>
      <stop offset="1" stop-color="#120B09"/>
    </linearGradient>
    <radialGradient id="glow" cx="35%" cy="30%" r="65%">
      <stop offset="0" stop-color="#9AA5FF" stop-opacity="0.26"/>
      <stop offset="1" stop-color="#000000" stop-opacity="0"/>
    </radialGradient>
  </defs>
  <rect width="1200" height="900" fill="url(#bg)"/>
  <rect width="1200" height="900" fill="url(#glow)"/>
  <g transform="translate(600 500)">
    <path d="M0-210 L52-72 L210-72 L82 20 L132 180 L0 90 L-132 180 L-82 20 L-210-72 L-52-72 Z"
      fill="#9AA5FF" opacity="0.22"/>
    <path d="M0-170 L42-60 L170-60 L66 12 L106 150 L0 78 L-106 150 L-66 12 L-170-60 L-42-60 Z"
      fill="#D4A574" opacity="0.20"/>
  </g>
  <g font-family="Inter, system-ui, -apple-system, Segoe UI, Roboto, Arial" text-anchor="middle">
    <text x="600" y="160" fill="#9AA5FF" font-size="22" letter-spacing="6">BALAJI SNACKS</text>
    <text x="600" y="205" fill="#FFFFFF" font-size="42" font-weight="700">SPECIAL</text>
    <text x="600" y="245" fill="#FFFFFF" opacity="0.8" font-size="18">8M*F72M .M8M</text>
  </g>
</svg>

